# xmcd
#
# Track frame offsets: 
#        150
#        5865
#        28941
#        47846
#        66837
#        85095
#        102762
#        120557
#        140585
#        158725
#        178339
#        198794
#        213422
#        231064
#
# Disc length: 3435 seconds
#
# Revision: 3
# Processed by: cddbd v1.5.2PL0 Copyright (c) Steve Scherf et al.
# Submitted via: ExactAudioCopy v1.1
#
DISCID=c10d690e
DTITLE=Mary J. Blige - My Life II...The Journey Continues (Act 1)
DYEAR=2011
DGENRE=R&B
TTITLE0=Intro
TTITLE1=Feel Inside
TTITLE2=Midnight Drive
TTITLE3=Next Level
TTITLE4=Ain't Nobody
TTITLE5=25-8
TTITLE6=Don't Mind
TTITLE7=No Condition
TTITLE8=Mr. Wrong
TTITLE9=Why
TTITLE10=Love A Woman
TTITLE11=Empty Prayers
TTITLE12=Need Someone
TTITLE13=The Living Proof
EXTD=
EXTT0=
EXTT1=
EXTT2=
EXTT3=
EXTT4=
EXTT5=
EXTT6=
EXTT7=
EXTT8=
EXTT9=
EXTT10=
EXTT11=
EXTT12=
EXTT13=
PLAYORDER=
